<svg xmlns="http://www.w3.org/2000/svg" viewBox="0 0 373 67.6"><defs><style>.cls-1{fill:none}.cls-2{fill:#fff}</style><clipPath id="clip-path"><path class="cls-1" d="M27.5 12a33.13 33.13 0 0 1 11.1 1.8 25 25 0 0 1 8.7 5.1 22.31 22.31 0 0 1 5.6 7.9 24.45 24.45 0 0 1 2 10.2 26.13 26.13 0 0 1-2 10.2 25.11 25.11 0 0 1-5.6 8 25.21 25.21 0 0 1-8.7 5.2 35.87 35.87 0 0 1-11.1 1.7H10.9v-21H4.5v-8.6h6.4V12zm-6.3 9.2v11.3h13l-7.3 8.6h-5.7v11.7h6.2a21.87 21.87 0 0 0 7-1.1 16.12 16.12 0 0 0 5.4-3.2 14.33 14.33 0 0 0 3.4-5 16.9 16.9 0 0 0 1.2-6.6 16.9 16.9 0 0 0-1.2-6.6 14.35 14.35 0 0 0-3.4-4.9 15.92 15.92 0 0 0-5.4-3.1 21.87 21.87 0 0 0-7-1.1z"/></clipPath><clipPath id="clip-path-2"><path class="cls-1" d="M78.4 23.4a19.87 19.87 0 0 1 6.6 1 13.22 13.22 0 0 1 5.1 3.1 14.07 14.07 0 0 1 3.3 5.1 19.19 19.19 0 0 1 1.2 7.1v22.5h-9.5v-3.7a13.85 13.85 0 0 1-5 3.4 17.78 17.78 0 0 1-6.7 1.2 15.86 15.86 0 0 1-5.5-.9 14.39 14.39 0 0 1-4.2-2.4 10.4 10.4 0 0 1-2.6-3.6 11.3 11.3 0 0 1-.9-4.5 9.44 9.44 0 0 1 3.9-8.1c2.6-1.9 6.1-2.9 10.6-2.9h9.5V39a6.57 6.57 0 0 0-1.8-4.9 7.33 7.33 0 0 0-5.4-1.8 10.21 10.21 0 0 0-5.3 1.4 22.41 22.41 0 0 0-4.7 3.8l-5.3-6.4a21.34 21.34 0 0 1 16.7-7.7m-2.1 32.1a8 8 0 0 0 5.7-2.1 6.76 6.76 0 0 0 2.3-5.4v-.5h-8.1c-3.5 0-5.3 1.3-5.3 3.8a3.75 3.75 0 0 0 1.5 3.1 6 6 0 0 0 3.9 1.1"/></clipPath><clipPath id="clip-path-3"><path class="cls-1" d="M122.2 23.4a21 21 0 0 1 7.9 1.5 20.2 20.2 0 0 1 6.5 4.2 21.62 21.62 0 0 1 4.4 6.3 18.46 18.46 0 0 1 1.6 7.8 19.25 19.25 0 0 1-1.6 7.9 19.88 19.88 0 0 1-4.4 6.3 19.17 19.17 0 0 1-6.5 4.2 21.55 21.55 0 0 1-15.8 0 20.2 20.2 0 0 1-6.5-4.2 19.6 19.6 0 0 1-4.3-6.3 20.63 20.63 0 0 1-1.6-7.9 18.46 18.46 0 0 1 1.6-7.8 19.66 19.66 0 0 1 10.7-10.5 23.21 23.21 0 0 1 8-1.5m0 9.5a9.14 9.14 0 0 0-7.1 3 10.79 10.79 0 0 0-2.7 7.5 10.37 10.37 0 0 0 2.7 7.4 9.42 9.42 0 0 0 7.1 2.9 10.06 10.06 0 0 0 3.9-.8 8.39 8.39 0 0 0 3.1-2.2 9.33 9.33 0 0 0 2.1-3.3 11.09 11.09 0 0 0 .8-4.1 10.7 10.7 0 0 0-.8-4.1 9.33 9.33 0 0 0-2.1-3.3 9.73 9.73 0 0 0-3.1-2.2 10.87 10.87 0 0 0-3.9-.8"/></clipPath><clipPath id="clip-path-4"><path class="cls-1" d="M170.8 23.4a15.89 15.89 0 0 1 5.9 1.1 11.7 11.7 0 0 1 4.4 3.1 14.14 14.14 0 0 1 2.8 4.8 17.54 17.54 0 0 1 1 6.2v23.5h-10.1v-22a7.19 7.19 0 0 0-1.9-5.3 6.35 6.35 0 0 0-5-2 6.93 6.93 0 0 0-5.1 2 7.41 7.41 0 0 0-2 5.3v22.2h-10.2v-38h9.3v3.5a15.64 15.64 0 0 1 4.7-3.2 15.24 15.24 0 0 1 6.2-1.2"/></clipPath><clipPath id="clip-path-5"><path class="cls-1" d="M289.4 23.4a16.43 16.43 0 0 1 6 1.1 12.08 12.08 0 0 1 4.5 3.1 14.14 14.14 0 0 1 2.8 4.8 20.18 20.18 0 0 1 .9 6.2v23.5h-10.2V40.2a7.66 7.66 0 0 0-1.8-5.4 6.25 6.25 0 0 0-4.8-2 6.7 6.7 0 0 0-5 2 7 7 0 0 0-1.9 5.2v22.3h-10.4V40.2a7.66 7.66 0 0 0-1.8-5.4 6.48 6.48 0 0 0-4.9-2 6.7 6.7 0 0 0-5 2 7.7 7.7 0 0 0-1.9 5.4v22.1h-10.2v-38h9.4v3.4a13.94 13.94 0 0 1 4.5-3.1 16.58 16.58 0 0 1 6.1-1.1 14.5 14.5 0 0 1 6.5 1.4 12.31 12.31 0 0 1 4.5 4 16.27 16.27 0 0 1 5.4-3.9 16 16 0 0 1 7.3-1.6"/></clipPath><clipPath id="clip-path-6"><path class="cls-1" d="M318.4 4.5a6.74 6.74 0 0 1 4.7 1.8 6 6 0 0 1 2 4.6 5.91 5.91 0 0 1-2 4.5 6.74 6.74 0 0 1-4.7 1.8 6.81 6.81 0 0 1-4.8-1.8 5.91 5.91 0 0 1-2-4.5 6.29 6.29 0 0 1 2-4.6 6.81 6.81 0 0 1 4.8-1.8zm-5.3 57.7h10.6V24.6h-10.6z"/></clipPath><clipPath id="clip-path-7"><path class="cls-1" d="M351.9 23.4a18 18 0 0 1 16.5 9.3l-7.2 5.6a16.19 16.19 0 0 0-3.8-4 9.07 9.07 0 0 0-5.4-1.5 10.19 10.19 0 0 0-4 .8 9.73 9.73 0 0 0-3.1 2.2 7.93 7.93 0 0 0-2 3.3 11 11 0 0 0-.7 4.1 10.73 10.73 0 0 0 2.7 7.4 11.59 11.59 0 0 0 3.1 2.2 10.19 10.19 0 0 0 4 .8 9.29 9.29 0 0 0 5.4-1.5 15.7 15.7 0 0 0 3.8-3.9l7.2 5.5a19 19 0 0 1-6.6 6.9 18.73 18.73 0 0 1-9.9 2.6 21.09 21.09 0 0 1-8-1.5 19.17 19.17 0 0 1-6.5-4.2 19.6 19.6 0 0 1-4.3-6.3 18.6 18.6 0 0 1-1.6-7.9 18.46 18.46 0 0 1 1.6-7.8 18.16 18.16 0 0 1 4.3-6.2 19.17 19.17 0 0 1 6.5-4.2 19.45 19.45 0 0 1 8-1.7"/></clipPath></defs><g id="Layer_2" data-name="Layer 2"><g id="Layer_1-2" data-name="Layer 1"><path id="SVGID" class="cls-2" d="M27.5 12a33.13 33.13 0 0 1 11.1 1.8 25 25 0 0 1 8.7 5.1 22.31 22.31 0 0 1 5.6 7.9 24.45 24.45 0 0 1 2 10.2 26.13 26.13 0 0 1-2 10.2 25.11 25.11 0 0 1-5.6 8 25.21 25.21 0 0 1-8.7 5.2 35.87 35.87 0 0 1-11.1 1.7H10.9v-21H4.5v-8.6h6.4V12zm-6.3 9.2v11.3h13l-7.3 8.6h-5.7v11.7h6.2a21.87 21.87 0 0 0 7-1.1 16.12 16.12 0 0 0 5.4-3.2 14.33 14.33 0 0 0 3.4-5 16.9 16.9 0 0 0 1.2-6.6 16.9 16.9 0 0 0-1.2-6.6 14.35 14.35 0 0 0-3.4-4.9 15.92 15.92 0 0 0-5.4-3.1 21.87 21.87 0 0 0-7-1.1z"/><g clip-path="url(#clip-path)"><path class="cls-2" d="M0 7.5h59.5v59.2H0z"/></g><path id="SVGID-2" data-name="SVGID" class="cls-2" d="M78.4 23.4a19.87 19.87 0 0 1 6.6 1 13.22 13.22 0 0 1 5.1 3.1 14.07 14.07 0 0 1 3.3 5.1 19.19 19.19 0 0 1 1.2 7.1v22.5h-9.5v-3.7a13.85 13.85 0 0 1-5 3.4 17.78 17.78 0 0 1-6.7 1.2 15.86 15.86 0 0 1-5.5-.9 14.39 14.39 0 0 1-4.2-2.4 10.4 10.4 0 0 1-2.6-3.6 11.3 11.3 0 0 1-.9-4.5 9.44 9.44 0 0 1 3.9-8.1c2.6-1.9 6.1-2.9 10.6-2.9h9.5V39a6.57 6.57 0 0 0-1.8-4.9 7.33 7.33 0 0 0-5.4-1.8 10.21 10.21 0 0 0-5.3 1.4 22.41 22.41 0 0 0-4.7 3.8l-5.3-6.4a21.34 21.34 0 0 1 16.7-7.7m-2.1 32.1a8 8 0 0 0 5.7-2.1 6.76 6.76 0 0 0 2.3-5.4v-.5h-8.1c-3.5 0-5.3 1.3-5.3 3.8a3.75 3.75 0 0 0 1.5 3.1 6 6 0 0 0 3.9 1.1"/><g clip-path="url(#clip-path-2)"><path class="cls-2" d="M55.9 18.9h43.3v48.7H55.9z"/></g><path id="SVGID-3" data-name="SVGID" class="cls-2" d="M122.2 23.4a21 21 0 0 1 7.9 1.5 20.2 20.2 0 0 1 6.5 4.2 21.62 21.62 0 0 1 4.4 6.3 18.46 18.46 0 0 1 1.6 7.8 19.25 19.25 0 0 1-1.6 7.9 19.88 19.88 0 0 1-4.4 6.3 19.17 19.17 0 0 1-6.5 4.2 21.55 21.55 0 0 1-15.8 0 20.2 20.2 0 0 1-6.5-4.2 19.6 19.6 0 0 1-4.3-6.3 20.63 20.63 0 0 1-1.6-7.9 18.46 18.46 0 0 1 1.6-7.8 19.66 19.66 0 0 1 10.7-10.5 23.21 23.21 0 0 1 8-1.5m0 9.5a9.14 9.14 0 0 0-7.1 3 10.79 10.79 0 0 0-2.7 7.5 10.37 10.37 0 0 0 2.7 7.4 9.42 9.42 0 0 0 7.1 2.9 10.06 10.06 0 0 0 3.9-.8 8.39 8.39 0 0 0 3.1-2.2 9.33 9.33 0 0 0 2.1-3.3 11.09 11.09 0 0 0 .8-4.1 10.7 10.7 0 0 0-.8-4.1 9.33 9.33 0 0 0-2.1-3.3 9.73 9.73 0 0 0-3.1-2.2 10.87 10.87 0 0 0-3.9-.8"/><g clip-path="url(#clip-path-3)"><path class="cls-2" d="M97.4 18.9H147v48.7H97.4z"/></g><path id="SVGID-4" data-name="SVGID" class="cls-2" d="M170.8 23.4a15.89 15.89 0 0 1 5.9 1.1 11.7 11.7 0 0 1 4.4 3.1 14.14 14.14 0 0 1 2.8 4.8 17.54 17.54 0 0 1 1 6.2v23.5h-10.1v-22a7.19 7.19 0 0 0-1.9-5.3 6.35 6.35 0 0 0-5-2 6.93 6.93 0 0 0-5.1 2 7.41 7.41 0 0 0-2 5.3v22.2h-10.2v-38h9.3v3.5a15.64 15.64 0 0 1 4.7-3.2 15.24 15.24 0 0 1 6.2-1.2"/><g clip-path="url(#clip-path-4)"><path class="cls-2" d="M146.1 18.9h43.3v47.8h-43.3z"/></g><path id="SVGID-5" data-name="SVGID" class="cls-2" d="M289.4 23.4a16.43 16.43 0 0 1 6 1.1 12.08 12.08 0 0 1 4.5 3.1 14.14 14.14 0 0 1 2.8 4.8 20.18 20.18 0 0 1 .9 6.2v23.5h-10.2V40.2a7.66 7.66 0 0 0-1.8-5.4 6.25 6.25 0 0 0-4.8-2 6.7 6.7 0 0 0-5 2 7 7 0 0 0-1.9 5.2v22.3h-10.4V40.2a7.66 7.66 0 0 0-1.8-5.4 6.48 6.48 0 0 0-4.9-2 6.7 6.7 0 0 0-5 2 7.7 7.7 0 0 0-1.9 5.4v22.1h-10.2v-38h9.4v3.4a13.94 13.94 0 0 1 4.5-3.1 16.58 16.58 0 0 1 6.1-1.1 14.5 14.5 0 0 1 6.5 1.4 12.31 12.31 0 0 1 4.5 4 16.27 16.27 0 0 1 5.4-3.9 16 16 0 0 1 7.3-1.6"/><g clip-path="url(#clip-path-5)"><path class="cls-2" d="M241.3 18.9H308v47.8h-66.7z"/></g><path id="SVGID-6" data-name="SVGID" class="cls-2" d="M318.4 4.5a6.74 6.74 0 0 1 4.7 1.8 6 6 0 0 1 2 4.6 5.91 5.91 0 0 1-2 4.5 6.74 6.74 0 0 1-4.7 1.8 6.81 6.81 0 0 1-4.8-1.8 5.91 5.91 0 0 1-2-4.5 6.29 6.29 0 0 1 2-4.6 6.81 6.81 0 0 1 4.8-1.8zm-5.3 57.7h10.6V24.6h-10.6z"/><g clip-path="url(#clip-path-6)"><path class="cls-2" d="M307.1 0h22.5v66.7h-22.5z"/></g><path id="SVGID-7" data-name="SVGID" class="cls-2" d="M351.9 23.4a18 18 0 0 1 16.5 9.3l-7.2 5.6a16.19 16.19 0 0 0-3.8-4 9.07 9.07 0 0 0-5.4-1.5 10.19 10.19 0 0 0-4 .8 9.73 9.73 0 0 0-3.1 2.2 7.93 7.93 0 0 0-2 3.3 11 11 0 0 0-.7 4.1 10.73 10.73 0 0 0 2.7 7.4 11.59 11.59 0 0 0 3.1 2.2 10.19 10.19 0 0 0 4 .8 9.29 9.29 0 0 0 5.4-1.5 15.7 15.7 0 0 0 3.8-3.9l7.2 5.5a19 19 0 0 1-6.6 6.9 18.73 18.73 0 0 1-9.9 2.6 21.09 21.09 0 0 1-8-1.5 19.17 19.17 0 0 1-6.5-4.2 19.6 19.6 0 0 1-4.3-6.3 18.6 18.6 0 0 1-1.6-7.9 18.46 18.46 0 0 1 1.6-7.8 18.16 18.16 0 0 1 4.3-6.2 19.17 19.17 0 0 1 6.5-4.2 19.45 19.45 0 0 1 8-1.7"/><g clip-path="url(#clip-path-7)"><path class="cls-2" d="M327 18.9h46v48.7h-46z"/></g><path id="SVGID-8" data-name="SVGID" class="cls-2" d="M214.9 23.4a21 21 0 0 1 7.9 1.5 20.2 20.2 0 0 1 6.5 4.2 21.62 21.62 0 0 1 4.4 6.3 18.46 18.46 0 0 1 1.6 7.8 19.25 19.25 0 0 1-1.6 7.9 19.88 19.88 0 0 1-4.4 6.3 19.17 19.17 0 0 1-6.5 4.2 21.55 21.55 0 0 1-15.8 0 20.2 20.2 0 0 1-6.5-4.2 19.6 19.6 0 0 1-4.3-6.3 20.63 20.63 0 0 1-1.6-7.9 18.46 18.46 0 0 1 1.6-7.8 19.66 19.66 0 0 1 10.7-10.5 23.21 23.21 0 0 1 8-1.5m0 9.5a9.14 9.14 0 0 0-7.1 3 10.79 10.79 0 0 0-2.7 7.5 10.37 10.37 0 0 0 2.7 7.4 9.42 9.42 0 0 0 7.1 2.9 10.06 10.06 0 0 0 3.9-.8 8.39 8.39 0 0 0 3.1-2.2 9.33 9.33 0 0 0 2.1-3.3 11.09 11.09 0 0 0 .8-4.1 10.7 10.7 0 0 0-.8-4.1 9.33 9.33 0 0 0-2.1-3.3 9.73 9.73 0 0 0-3.1-2.2 10.46 10.46 0 0 0-3.9-.8"/></g></g></svg>